Coordinates
version=1
nRows=16
nColumns=33
inDegrees=yes

Units are S.I. units (second, meters, Newtons, ...)
Angles are in degrees.

endheader
time	ground_thorax_rot_x	ground_thorax_rot_y	ground_thorax_rot_z	ground_thorax_tx	ground_thorax_ty	ground_thorax_tz	clav_prot_r	clav_elev_r	scapula_abduction_r	scapula_elevation_r	scapula_upward_rot_r	scapula_winging_r	shoulder_elv_r	plane_of_elev_r	axial_rot_r	elbow_flexion_r	pro_sup_r	wrist_flex_r	wrist_dev_r	clav_prot_l	clav_elev_l	scapula_abduction_l	scapula_elevation_l	scapula_upward_rot_l	scapula_winging_l	shoulder_elv_l	plane_of_elev_l	axial_rot_l	elbow_flexion_l	pro_sup_l	wrist_flex_l	wrist_dev_l
      7.82000000	     24.24991378	     31.25798090	     50.59779728	     64.45202889	    770.12817200	    -42.82530607	     13.07434583	     36.18797390	     26.37827898	     45.00000000	    -45.00000000	  -1882.55828076	  -2448.51829040	     20.69710703	   -159.12620218	   -359.16709562	    175.88684683	     12.98126807	     11.58095567	    -13.18204093	    -45.00000000	    -35.91851302	     45.00000000	    -45.00000000	  -2777.82799212	     75.57227766	     24.40197060	     22.96765072	   2151.15880518	     48.73445649	     10.78502777	    -15.93718475
      7.83000000	     24.33343071	     31.17941130	     50.42887054	     62.87428470	    769.92477833	    -42.99658981	     13.06683623	     36.25546581	     26.38183123	     45.00000000	    -45.00000000	  -1882.76104416	  -2448.53421215	     20.80428302	   -158.90390714	   -359.06764586	    175.91244372	     12.95657773	     11.62752029	    -13.11426173	    -45.00000000	    -35.94411655	     45.00000000	    -45.00000000	  -2777.74883849	     75.59085664	     24.46515970	     22.80158473	   2151.01733223	     48.77739644	     10.40652487	    -16.03883228
      7.84000000	     24.34430565	     31.10881567	     50.31141812	     61.26666022	    769.74699962	    -43.15945441	     13.06433953	     36.14739201	     26.23829265	     45.00000000	    -45.00000000	  -1882.67623645	  -2448.43723521	     20.67381911	   -158.73027440	   -359.13668057	    175.90077181	     12.96015615	     11.64986742	    -13.10711572	    -45.00000000	    -35.93564817	     45.00000000	    -45.00000000	  -2777.69027863	     75.69226605	     24.40417646	     22.60935033	   2151.17719425	     48.84934880	     10.79863723	    -15.93525035
      7.85000000	     24.40329152	     31.05022345	     50.19712958	     59.63260962	    769.59370104	    -43.31276686	     13.06310979	     36.19901465	     26.24841161	     45.00000000	    -45.00000000	  -1882.93240034	  -2448.50812148	     20.77955273	   -158.57851011	   -359.07893302	    175.85051046	     12.94567804	     11.71769623	    -13.02112757	    -45.00000000	    -35.92502421	     45.00000000	    -45.00000000	  -2777.57243055	     75.65056170	     24.43952422	     22.44614277	   2151.02314621	     48.85958757	     10.34433219	    -16.07643015
      7.86000000	     24.40429713	     31.01472500	     50.08812079	     57.97754845	    769.46458048	    -43.45550593	     13.05053356	     36.12637770	     26.15921650	     45.00000000	    -45.00000000	  -1882.82919397	  -2448.39053719	     20.53146352	   -158.30805876	   -359.14938164	    175.79000363	     12.95849549	     11.71807222	    -13.00239939	    -45.00000000	    -36.03123877	     45.00000000	    -45.00000000	  -2777.56510209	     75.72751990	     24.30141955	     22.29799514	   2151.22585586	     48.89662432	     10.75189258	    -15.95323414
      7.87000000	     24.53088885	     30.88932889	     49.88920793	     56.30464697	    769.35933383	    -43.58679234	     13.02687095	     36.17010381	     26.16070034	     45.00000000	    -45.00000000	  -1883.01768552	  -2448.41176076	     20.72241582	   -158.14762960	   -359.01515505	    175.69136870	     12.90155435	     11.81580673	    -12.95038629	    -45.00000000	    -36.05833071	     45.00000000	    -45.00000000	  -2777.44708250	     75.68520503	     24.36031354	     22.10341609	   2151.01518478	     48.89804896	     10.41084416	    -16.06297804
      7.88000000	     24.61795375	     30.81942881	     49.64466221	     54.60594240	    769.27787919	    -43.70667952	     13.03898271	     36.09954112	     25.91554485	     45.00000000	    -45.00000000	  -1882.85867199	  -2448.22838626	     20.63898862	   -157.88312601	   -359.04185717	    175.60517245	     12.88237168	     11.80517911	    -12.93394324	    -45.00000000	    -35.98495994	     45.00000000	    -45.00000000	  -2777.45907574	     75.83796927	     24.36740542	     21.94988247	   2151.11469488	     48.93931834	     10.91817179	    -15.91750575
      7.89000000	     24.55898569	     30.82304126	     49.69548889	     52.88990088	    769.22177113	    -43.81383099	     13.05825968	     36.06211518	     26.13335454	     45.00000000	    -45.00000000	  -1883.29818307	  -2448.46634579	     20.66464446	   -157.90753605	   -358.91374061	    175.46307511	     12.84979590	     11.92508334	    -12.87224594	    -45.00000000	    -36.10818586	     45.00000000	    -45.00000000	  -2777.27399617	     75.73931767	     24.33399841	     21.75188256	   2150.95367829	     48.87945495	     10.16821910	    -16.12468863
      7.90000000	     24.51933763	     30.78923552	     49.63765680	     51.15272762	    769.19238325	    -43.90803871	     13.03883123	     36.00966081	     25.96356597	     45.00000000	    -45.00000000	  -1883.11030160	  -2448.29330439	     20.35479552	   -157.57178892	   -359.09804430	    175.33883065	     12.89773479	     11.86964024	    -12.77722851	    -45.00000000	    -36.15399785	     45.00000000	    -45.00000000	  -2777.26492876	     75.88348623	     24.15548499	     21.67194383	   2151.21255571	     48.87661059	     10.76858351	    -15.94711599
      7.91000000	     24.63206635	     30.69050803	     49.41839044	     49.39285549	    769.19168366	    -43.98890028	     13.01331381	     36.06821032	     25.97090661	     45.00000000	    -45.00000000	  -1883.32633907	  -2448.34585017	     20.49217414	   -157.47843911	   -359.02081118	    175.18397842	     12.86223633	     11.96195191	    -12.74623536	    -45.00000000	    -36.16933997	     45.00000000	    -45.00000000	  -2777.13156229	     75.84612614	     24.25375257	     21.53262770	   2151.09087565	     48.83263472	     10.48280596	    -16.06391690
      7.92000000	     24.66967906	     30.61230440	     49.25525748	     47.61133103	    769.22139742	    -44.05607068	     13.01304247	     35.99460920	     25.87344735	     45.00000000	    -45.00000000	  -1883.28938423	  -2448.21428037	     20.42126383	   -157.27966040	   -359.04644376	    175.06270104	     12.84662092	     11.97165925	    -12.70149003	    -45.00000000	    -36.19331161	     45.00000000	    -45.00000000	  -2777.12124021	     75.92630838	     24.18834484	     21.41383656	   2151.15072876	     48.81168268	     10.71140807	    -15.99065850
      7.93000000	     24.73642817	     30.55273463	     49.11057852	     45.80526546	    769.28347413	    -44.10949085	     12.99882386	     36.02837001	     25.85365088	     45.00000000	    -45.00000000	  -1883.44719846	  -2448.23476289	     20.44994379	   -157.12588034	   -359.03336675	    174.93741406	     12.84260139	     12.01139567	    -12.63863558	    -45.00000000	    -36.23867337	     45.00000000	    -45.00000000	  -2777.00582845	     75.94036763	     24.18876349	     21.30231821	   2151.09495341	     48.76366270	     10.56679174	    -16.04913381
      7.94000000	     24.97417518	     30.35858542	     48.72045515	     43.97851257	    769.37966243	    -44.14904184	     12.95595770	     36.01897695	     25.71329760	     45.00000000	    -45.00000000	  -1883.41772444	  -2448.02355553	     20.64822632	   -156.94039997	   -358.98834885	    174.84765582	     12.78836300	     12.06131487	    -12.60717558	    -45.00000000	    -36.21451218	     45.00000000	    -45.00000000	  -2776.97758638	     75.93801273	     24.28185160	     21.19513052	   2150.99885118	     48.75418056	     10.81675043	    -16.02777622
      7.95000000	     24.87275194	     30.40339248	     48.74475599	     42.12743384	    769.51256078	    -44.17505426	     13.00237420	     36.00272419	     25.78186278	     45.00000000	    -45.00000000	  -1883.64147450	  -2448.13178650	     20.48706230	   -156.96966794	   -359.01653046	    174.74086777	     12.83272648	     12.03839647	    -12.59864967	    -45.00000000	    -36.26447702	     45.00000000	    -45.00000000	  -2776.92544002	     76.00535767	     24.17416386	     21.09883186	   2151.01328750	     48.68584443	     10.53050792	    -16.07309789
      7.96000000	     24.88261503	     30.34369095	     48.60468437	     40.25119898	    769.68498906	    -44.18793701	     12.95690233	     35.95423595	     25.73135711	     45.00000000	    -45.00000000	  -1883.63580281	  -2448.07120563	     20.37062346	   -156.75627182	   -359.05089832	    174.68060662	     12.82247646	     12.08981990	    -12.45750108	    -45.00000000	    -36.37710665	     45.00000000	    -45.00000000	  -2776.82396284	     76.04873036	     24.14286315	     21.05536739	   2151.10899045	     48.63060324	     10.80210322	    -16.03859128
      7.97000000	     24.99383282	     30.24806384	     48.34170983	     38.35152794	    769.90007556	    -44.18815285	     12.94807105	     35.99051353	     25.70540275	     45.00000000	    -45.00000000	  -1883.77704399	  -2448.07507900	     20.49485336	   -156.71082703	   -358.95814227	    174.61050559	     12.79424527	     12.12355748	    -12.44734032	    -45.00000000	    -36.35704738	     45.00000000	    -45.00000000	  -2776.76249701	     76.06169085	     24.21263582	     20.99208667	   2151.01792771	     48.55304975	     10.64885786	    -16.12253432
